<svg width="20" height="20" viewBox="0 0 20 20" fill="none" xmlns="http://www.w3.org/2000/svg">
<rect width="20" height="20" fill="white"/>
<path d="M-1207.5 -68.0001C-1207.5 -77.665 -1199.66 -85.5 -1190 -85.5H53C62.665 -85.5 70.5 -77.665 70.5 -68V2079C70.5 2089.77 61.7695 2098.5 51 2098.5H-1188C-1198.77 2098.5 -1207.5 2089.77 -1207.5 2079V-68.0001Z" fill="#F8FAFA"/>
<path d="M-1207.5 -68.0001C-1207.5 -77.665 -1199.66 -85.5 -1190 -85.5H53C62.665 -85.5 70.5 -77.665 70.5 -68V2079C70.5 2089.77 61.7695 2098.5 51 2098.5H-1188C-1198.77 2098.5 -1207.5 2089.77 -1207.5 2079V-68.0001Z" stroke="#CAC4D0"/>
<rect width="1280" height="56" transform="translate(-1208 -20)" fill="#13283E"/>
<rect x="-139" y="-2" width="159" height="25" fill="white"/>
<path d="M18.3334 2.5H1.66669L8.33335 10.3833V15.8333L11.6667 17.5V10.3833L18.3334 2.5Z" stroke="#1E1E1E" stroke-width="2" stroke-linecap="round" stroke-linejoin="round"/>
</svg>
